<svg width="133" height="20" viewBox="0 0 133 20" fill="none" xmlns="http://www.w3.org/2000/svg">
<path d="M6.456 16.144C6.984 16.144 7.416 16.104 7.752 16.024C8.104 15.928 8.384 15.808 8.592 15.664C8.8 15.504 8.944 15.32 9.024 15.112C9.104 14.904 9.144 14.672 9.144 14.416C9.144 13.872 8.888 13.424 8.376 13.072C7.864 12.704 6.984 12.312 5.736 11.896C5.192 11.704 4.648 11.488 4.104 11.248C3.56 10.992 3.072 10.68 2.64 10.312C2.208 9.928 1.856 9.472 1.584 8.944C1.312 8.4 1.176 7.744 1.176 6.976C1.176 6.208 1.32 5.52 1.608 4.912C1.896 4.288 2.304 3.76 2.832 3.328C3.36 2.896 4 2.568 4.752 2.344C5.504 2.104 6.352 1.984 7.296 1.984C8.416 1.984 9.384 2.104 10.2 2.344C11.016 2.584 11.688 2.848 12.216 3.136L11.136 6.088C10.672 5.848 10.152 5.64 9.576 5.464C9.016 5.272 8.336 5.176 7.536 5.176C6.64 5.176 5.992 5.304 5.592 5.56C5.208 5.8 5.016 6.176 5.016 6.688C5.016 6.992 5.088 7.248 5.232 7.456C5.376 7.664 5.576 7.856 5.832 8.032C6.104 8.192 6.408 8.344 6.744 8.488C7.096 8.616 7.48 8.752 7.896 8.896C8.76 9.216 9.512 9.536 10.152 9.856C10.792 10.16 11.32 10.52 11.736 10.936C12.168 11.352 12.488 11.84 12.696 12.4C12.904 12.96 13.008 13.64 13.008 14.44C13.008 15.992 12.464 17.2 11.376 18.064C10.288 18.912 8.648 19.336 6.456 19.336C5.72 19.336 5.056 19.288 4.464 19.192C3.872 19.112 3.344 19.008 2.88 18.88C2.432 18.752 2.04 18.616 1.704 18.472C1.384 18.328 1.112 18.192 0.888 18.064L1.944 15.088C2.44 15.36 3.048 15.608 3.768 15.832C4.504 16.04 5.4 16.144 6.456 16.144ZM23.0241 11.752C22.7041 12.968 22.3601 14.176 21.9921 15.376C21.6401 16.576 21.2641 17.784 20.8641 19H18.0801C17.7921 18.328 17.4801 17.528 17.1441 16.6C16.8081 15.672 16.4561 14.664 16.0881 13.576C15.7361 12.472 15.3681 11.312 14.9841 10.096C14.6161 8.864 14.2561 7.624 13.9041 6.376H17.6721C17.8001 6.952 17.9361 7.584 18.0801 8.272C18.2401 8.944 18.4001 9.64 18.5601 10.36C18.7361 11.08 18.9121 11.808 19.0881 12.544C19.2801 13.264 19.4721 13.96 19.6641 14.632C19.8721 13.928 20.0721 13.208 20.2641 12.472C20.4721 11.736 20.6641 11.016 20.8401 10.312C21.0321 9.592 21.2081 8.904 21.3681 8.248C21.5441 7.576 21.6961 6.952 21.8241 6.376H24.4161C24.5441 6.952 24.6881 7.576 24.8481 8.248C25.0081 8.904 25.1761 9.592 25.3521 10.312C25.5281 11.016 25.7121 11.736 25.9041 12.472C26.0961 13.208 26.2961 13.928 26.5041 14.632C26.6961 13.96 26.8881 13.264 27.0801 12.544C27.2721 11.808 27.4481 11.08 27.6081 10.36C27.7841 9.64 27.9441 8.944 28.0881 8.272C28.2481 7.584 28.3921 6.952 28.5201 6.376H32.2401C31.8881 7.624 31.5201 8.864 31.1361 10.096C30.7681 11.312 30.4001 12.472 30.0321 13.576C29.6801 14.664 29.3281 15.672 28.9761 16.6C28.6401 17.528 28.3281 18.328 28.0401 19H25.2561C24.8561 17.784 24.4641 16.576 24.0801 15.376C23.6961 14.176 23.3441 12.968 23.0241 11.752ZM37.7404 19H34.1644V6.376H37.7404V19ZM38.0764 2.728C38.0764 3.384 37.8604 3.904 37.4284 4.288C37.0124 4.656 36.5164 4.84 35.9404 4.84C35.3644 4.84 34.8604 4.656 34.4284 4.288C34.0124 3.904 33.8044 3.384 33.8044 2.728C33.8044 2.072 34.0124 1.56 34.4284 1.192C34.8604 0.807999 35.3644 0.615999 35.9404 0.615999C36.5164 0.615999 37.0124 0.807999 37.4284 1.192C37.8604 1.56 38.0764 2.072 38.0764 2.728ZM46.5739 0.375999C47.2459 0.375999 47.8619 0.447999 48.4219 0.592C48.9819 0.719999 49.4139 0.847999 49.7179 0.975999L49.0219 3.832C48.7019 3.688 48.3499 3.584 47.9659 3.52C47.5979 3.44 47.2539 3.4 46.9339 3.4C46.5019 3.4 46.1339 3.464 45.8299 3.592C45.5419 3.704 45.3099 3.864 45.1339 4.072C44.9739 4.28 44.8539 4.528 44.7739 4.816C44.7099 5.104 44.6779 5.416 44.6779 5.752V6.376H49.0939V9.352H44.6779V19H41.1019V5.704C41.1019 4.072 41.5579 2.776 42.4699 1.816C43.3979 0.855999 44.7659 0.375999 46.5739 0.375999ZM51.1069 3.232L54.6829 2.656V6.376H58.9789V9.352H54.6829V13.792C54.6829 14.544 54.8109 15.144 55.0669 15.592C55.3389 16.04 55.8749 16.264 56.6749 16.264C57.0589 16.264 57.4509 16.232 57.8509 16.168C58.2669 16.088 58.6429 15.984 58.9789 15.856L59.4829 18.64C59.0509 18.816 58.5709 18.968 58.0429 19.096C57.5149 19.224 56.8669 19.288 56.0989 19.288C55.1229 19.288 54.3149 19.16 53.6749 18.904C53.0349 18.632 52.5229 18.264 52.1389 17.8C51.7549 17.32 51.4829 16.744 51.3229 16.072C51.1789 15.4 51.1069 14.656 51.1069 13.84V3.232ZM62.1309 19V2.368H73.2669V5.512H65.8749V8.992H72.4509V12.136H65.8749V19H62.1309ZM87.2458 12.664C87.2458 13.656 87.1018 14.568 86.8138 15.4C86.5258 16.216 86.1098 16.92 85.5658 17.512C85.0218 18.088 84.3658 18.536 83.5978 18.856C82.8458 19.176 81.9978 19.336 81.0538 19.336C80.1258 19.336 79.2778 19.176 78.5098 18.856C77.7578 18.536 77.1098 18.088 76.5658 17.512C76.0218 16.92 75.5978 16.216 75.2938 15.4C74.9898 14.568 74.8378 13.656 74.8378 12.664C74.8378 11.672 74.9898 10.768 75.2938 9.952C75.6138 9.136 76.0458 8.44 76.5898 7.864C77.1498 7.288 77.8058 6.84 78.5578 6.52C79.3258 6.2 80.1578 6.04 81.0538 6.04C81.9658 6.04 82.7978 6.2 83.5498 6.52C84.3178 6.84 84.9738 7.288 85.5178 7.864C86.0618 8.44 86.4858 9.136 86.7898 9.952C87.0938 10.768 87.2458 11.672 87.2458 12.664ZM83.5978 12.664C83.5978 11.56 83.3738 10.696 82.9258 10.072C82.4938 9.432 81.8698 9.112 81.0538 9.112C80.2378 9.112 79.6058 9.432 79.1578 10.072C78.7098 10.696 78.4858 11.56 78.4858 12.664C78.4858 13.768 78.7098 14.648 79.1578 15.304C79.6058 15.944 80.2378 16.264 81.0538 16.264C81.8698 16.264 82.4938 15.944 82.9258 15.304C83.3738 14.648 83.5978 13.768 83.5978 12.664ZM94.6101 10.216L97.1061 6.376H100.802L96.4821 12.448C97.4421 13.648 98.3141 14.816 99.0981 15.952C99.8821 17.088 100.506 18.104 100.97 19H97.1301C97.0021 18.76 96.8421 18.464 96.6501 18.112C96.4581 17.744 96.2421 17.368 96.0021 16.984C95.7621 16.584 95.5061 16.192 95.2341 15.808C94.9781 15.408 94.7221 15.048 94.4661 14.728C94.2261 15.032 93.9781 15.368 93.7221 15.736C93.4821 16.104 93.2501 16.48 93.0261 16.864C92.8021 17.232 92.5781 17.6 92.3541 17.968C92.1461 18.336 91.9621 18.68 91.8021 19H88.1541C88.3461 18.6 88.6101 18.128 88.9461 17.584C89.2821 17.04 89.6421 16.48 90.0261 15.904C90.4261 15.312 90.8421 14.728 91.2741 14.152C91.7061 13.56 92.1301 13.008 92.5461 12.496C91.8261 11.488 91.1061 10.472 90.3861 9.448C89.6661 8.408 88.9541 7.384 88.2501 6.376H92.1141L94.6101 10.216ZM108.889 2.368H112.633V19H108.889V2.368ZM128.819 2.368V5.56H123.803V19H120.059V5.56H115.043V2.368H128.819Z" fill="black"/>
</svg>
